<svg class="vector fh" width="300px" height="300px" xmlns="http://www.w3.org/2000/svg" baseProfile="full" version="1.1" style="width: 300px; height: 300px; stroke: rgb(0, 0, 0); stroke-width: 41; fill: none; stroke-linecap: square;"><g transform="translate(0,0)"><path d="M195,150 A45,-45 0 0,0 240,105  M240,60 L240,90  M195,150 L105,150  Z  M195,150 A45,45 0 0,1 240,195  M240,240 L240,225  M105,150 A-45,-45 0 0,1 60,105  M60,60 L60,90  M105,150 A-45,45 0 0,0 60,195  M60,240 L60,225  "></path></g><g><path d="M0,0" transform=""></path></g></svg>